<?xml version="1.0" encoding="iso-8859-1"?><svg width="64" height="64" viewBox="0 0 64 64" xmlns="http://www.w3.org/2000/svg" xmlns:xlink="http://www.w3.org/1999/xlink"><svg width="32" height="32" viewBox="0 0 422.831 422.831" id="/Users/haiyang/dev/postcss-auto-sprite/example/src/img/slice/social/foursquare.svg" xmlns="http://www.w3.org/2000/svg"><path d="M351.473 16.308A46.457 46.457 0 0 0 316.098 0H106.729C81.077 0 60.208 20.869 60.208 46.521V401.55a21.28 21.28 0 0 0 37.2 14.121l112.289-126.584h75.355c23.023 0 42.347-16.504 45.948-39.244l31.048-196.045a46.461 46.461 0 0 0-10.575-37.49zm-52.026 102.443h-99.52c-11.93 0-21.982 9.763-21.756 21.692.219 11.563 9.661 20.869 21.276 20.869h90.013c6.547 0 11.546 5.849 10.526 12.316l-10.082 63.943a10.657 10.657 0 0 1-10.532 8.997l-79.247-.04a21.278 21.278 0 0 0-15.919 7.159l-81.439 91.807V46.521a3.961 3.961 0 0 1 3.961-3.961h200.68c6.494 0 11.479 5.76 10.546 12.187l-7.962 54.877a10.654 10.654 0 0 1-10.545 9.127z" fill="#ff4175"/></svg><svg width="32" height="32" viewBox="0 0 551.034 551.034" id="/Users/haiyang/dev/postcss-auto-sprite/example/src/img/slice/social/instagram.svg" x="32" xmlns="http://www.w3.org/2000/svg"><linearGradient id="ba" gradientUnits="userSpaceOnUse" x1="275.517" y1="4.57" x2="275.517" y2="549.72" gradientTransform="matrix(1 0 0 -1 0 554)"><stop offset="0" stop-color="#e09b3d"/><stop offset=".3" stop-color="#c74c4d"/><stop offset=".6" stop-color="#c21975"/><stop offset="1" stop-color="#7024c4"/></linearGradient><path d="M386.878 0H164.156C73.64 0 0 73.64 0 164.156v222.722c0 90.516 73.64 164.156 164.156 164.156h222.722c90.516 0 164.156-73.64 164.156-164.156V164.156C551.033 73.64 477.393 0 386.878 0zM495.6 386.878c0 60.045-48.677 108.722-108.722 108.722H164.156c-60.045 0-108.722-48.677-108.722-108.722V164.156c0-60.046 48.677-108.722 108.722-108.722h222.722c60.045 0 108.722 48.676 108.722 108.722v222.722z" fill="url(#ba)"/><linearGradient id="bb" gradientUnits="userSpaceOnUse" x1="275.517" y1="4.57" x2="275.517" y2="549.72" gradientTransform="matrix(1 0 0 -1 0 554)"><stop offset="0" stop-color="#e09b3d"/><stop offset=".3" stop-color="#c74c4d"/><stop offset=".6" stop-color="#c21975"/><stop offset="1" stop-color="#7024c4"/></linearGradient><path d="M275.517 133C196.933 133 133 196.933 133 275.516s63.933 142.517 142.517 142.517S418.034 354.1 418.034 275.516 354.101 133 275.517 133zm0 229.6c-48.095 0-87.083-38.988-87.083-87.083s38.989-87.083 87.083-87.083c48.095 0 87.083 38.988 87.083 87.083 0 48.094-38.989 87.083-87.083 87.083z" fill="url(#bb)"/><linearGradient id="bc" gradientUnits="userSpaceOnUse" x1="418.31" y1="4.57" x2="418.31" y2="549.72" gradientTransform="matrix(1 0 0 -1 0 554)"><stop offset="0" stop-color="#e09b3d"/><stop offset=".3" stop-color="#c74c4d"/><stop offset=".6" stop-color="#c21975"/><stop offset="1" stop-color="#7024c4"/></linearGradient><circle cx="418.31" cy="134.07" r="34.15" fill="url(#bc)"/></svg><svg width="32" height="32" viewBox="0 0 395.955 395.955" id="/Users/haiyang/dev/postcss-auto-sprite/example/src/img/slice/social/path.svg" y="32" xmlns="http://www.w3.org/2000/svg"><path d="M322.327 39.477C288.298 14.02 243.502 0 196.191 0c-47.232 0-91.57 14.342-124.845 40.384-35.04 27.425-54.339 64.572-54.339 104.601 0 37.081 5.851 65.753 34.547 98.815 3.444 3.968 9.492 4.291 13.303.674l28.198-26.764c3.548-3.368 3.817-8.915.651-12.644-17.423-20.518-19.479-35.481-19.479-60.081 0-48.394 54.712-87.766 121.963-87.766 35.037 0 67.659 9.971 91.86 28.075 21.717 16.246 33.676 37.069 33.676 58.632 0 20.673-4.582 48.997-26.409 66.528-20.545 16.502-53.333 20.887-92.372 12.374V117.841a9.192 9.192 0 0 0-9.192-9.192h-40.732a9.192 9.192 0 0 0-9.192 9.192v214.126c-.287 2.184-1.643 3.454-2.243 3.918-1.612 1.243-2.95.97-3.39.879l-33.844-6.898a9.192 9.192 0 0 0-10.843 7.171l-8.134 39.911a9.192 9.192 0 0 0 7.171 10.843l33.844 6.898a62.799 62.799 0 0 0 12.549 1.266c13.877 0 27.529-4.596 38.774-13.278a65.017 65.017 0 0 0 25.188-47.952l.045-.809v-52.828c12.564 2.106 24.76 3.151 36.486 3.151 36.099 0 67.718-9.899 91.716-29.173 31.27-25.114 47.8-63.546 47.8-111.141 0-40.039-20.108-77.134-56.621-104.448z" fill="#eb4427"/></svg></svg>