<?xml version="1.0" encoding="iso-8859-1"?><svg width="64" height="32" viewBox="0 0 64 32" xmlns="http://www.w3.org/2000/svg" xmlns:xlink="http://www.w3.org/1999/xlink"><svg width="32" height="32" viewBox="0 0 457.944 457.944" id="/Users/haiyang/work/postcss-auto-sprite/example/src/img/slice/other/box.svg" xmlns="http://www.w3.org/2000/svg"><g fill="#00aef0"><path d="M232.989 182.012c-33.693 0-62.711 20.378-75.391 49.453-12.681-29.075-41.699-49.453-75.391-49.453a81.715 81.715 0 0 0-42.92 12.121v-67.64c0-10.849-8.795-19.643-19.643-19.643S0 115.644 0 126.494v137.724c0 45.329 36.878 82.206 82.206 82.206 33.693 0 62.711-20.378 75.391-49.453 12.681 29.076 41.699 49.453 75.391 49.453 45.328 0 82.206-36.878 82.206-82.206.002-45.328-36.876-82.206-82.205-82.206zM82.206 307.137c-23.666 0-42.92-19.253-42.92-42.92 0-23.665 19.254-42.919 42.92-42.919s42.919 19.253 42.919 42.919c.001 23.667-19.253 42.92-42.919 42.92zm150.783 0c-23.666 0-42.919-19.253-42.919-42.92 0-23.665 19.253-42.919 42.919-42.919s42.919 19.253 42.919 42.919c.001 23.667-19.253 42.92-42.919 42.92z"/><path d="M404.896 263.403l48.192-55.117c7.141-8.167 6.309-20.577-1.858-27.718s-20.577-6.309-27.718 1.858l-44.709 51.134-44.709-51.134c-7.141-8.167-19.55-8.998-27.718-1.858-8.167 7.141-8.999 19.551-1.858 27.718l48.192 55.117-48.192 55.117c-7.141 8.167-6.309 20.577 1.858 27.718a19.562 19.562 0 0 0 12.922 4.855c5.47 0 10.913-2.272 14.796-6.713l44.709-51.134 44.709 51.134c3.884 4.442 9.325 6.713 14.796 6.713 4.588 0 9.196-1.599 12.922-4.855 8.167-7.141 8.999-19.551 1.858-27.718l-48.192-55.117z"/></g></svg><svg width="32" height="32" viewBox="0 0 400.932 400.932" id="/Users/haiyang/work/postcss-auto-sprite/example/src/img/slice/other/skype.svg" x="32" xmlns="http://www.w3.org/2000/svg"><path d="M384.762 231.039c-6.361-8.792-9.309-19.53-9.297-30.382l.001-.19c0-96.649-78.35-174.999-174.999-174.999-21.143 0-41.402 3.763-60.162 10.64-10.149 3.72-21.267 4.435-31.672 1.504-9.191-2.589-19.009-3.681-29.18-2.981C36.728 37.571 2.332 72.586.118 115.355c-1.057 20.414 5.065 39.351 16.053 54.539 6.361 8.792 9.309 19.53 9.296 30.382v.19c0 96.649 78.349 174.999 174.999 174.999 21.144 0 41.403-3.763 60.162-10.64 10.149-3.72 21.267-4.435 31.672-1.504 9.191 2.589 19.008 3.681 29.18 2.981 42.725-2.94 77.12-37.954 79.335-80.722 1.057-20.414-5.065-39.352-16.053-54.541zm-177.889-61.946c35.286 8.391 88.608 21.071 88.608 79.806 0 28.934-14.249 51.006-40.124 62.149-18.464 7.952-39.361 9.025-57.368 9.025-55.336 0-90.286-43.028-91.747-44.86-9.062-11.366-7.197-27.928 4.17-36.99 11.364-9.066 27.926-7.196 36.99 4.167.081.097 20.982 24.101 50.587 25.04 35.65 1.131 43.795-9.476 44.848-18.53 1.287-11.058-8.55-19.176-48.146-28.592-33.562-7.982-84.287-20.044-84.287-74.137 0-16.845 6.851-71.807 95.013-71.807 55.668 0 88.527 43.829 89.899 45.695 8.61 11.713 6.096 28.189-5.617 36.798-11.662 8.572-28.034 6.119-36.677-5.452-.62-.797-19.429-21.723-47.605-24.398-21.32-2.025-42.37 5.663-42.37 17.02 0 12.033 6.045 16.081 43.826 25.066z" fill="#00aaf2"/></svg></svg>