<?xml version="1.0" encoding="iso-8859-1"?><svg width="64" height="32" viewBox="0 0 64 32" xmlns="http://www.w3.org/2000/svg" xmlns:xlink="http://www.w3.org/1999/xlink"><svg width="32" height="32" viewBox="0 0 512 512" id="/Users/haiyang/dev/postcss-auto-sprite/example/src/img/slice/css3.svg" xmlns="http://www.w3.org/2000/svg"><path fill="#2196f3" d="M32 0l40.8 460.8L256 512l183.136-51.168L480 0z"/><path fill="#fafafa" d="M392.768 150.688l-5.152 57.888-15.552 173.536L256 414.208l-.096.032-116-32.128-8.096-90.752h56.832l4.224 47.072 63.072 17.024.032-.032 63.168-17.024 8.608-78.432-198.656.544-5.632-53.632 209.056-2.464 4.224-57.408-218.88.608-3.68-53.408h283.648z"/></svg><svg width="32" height="32" viewBox="0 0 434.147 434.147" id="/Users/haiyang/dev/postcss-auto-sprite/example/src/img/slice/html5.svg" x="32" xmlns="http://www.w3.org/2000/svg"><path d="M27.336 14.372l28.177 360.474a13.333 13.333 0 0 0 9.263 11.67l148.268 47.008c2.622.831 5.437.831 8.059 0l148.268-47.008a13.333 13.333 0 0 0 9.263-11.67l28.177-360.474C407.417 6.622 401.292 0 393.519 0H40.629c-7.773 0-13.898 6.622-13.293 14.372zm307.217 111.843H150.918l5.542 51.105h174.099L319.17 323.013l-102.096 32.369-102.096-32.369-5.95-76.116h53.588v37.336l55.89 15 55.556-15 4.31-59.503H107.295L95.937 79.419H338.21l-3.657 46.796z" fill="#fc490b"/></svg></svg>